# xmcd
#
# Track frame offsets:
#	150
#	23296
#	52503
#	81440
#	123802
#	137550
#	171080
#
# Disc length: 2658 seconds
#
# Revision: 0
# Processed by: cddbd v1.5.2PL0 Copyright (c) Steve Scherf et al.
# Submitted via: EZCDAudioConverter 2.0.5.1
#
DISCID=440a6007
DTITLE=Rory Gallagher - Kickback City CD2
DYEAR=1900
DGENRE=
TTITLE0=Continental Op
TTITLE1=Tattoo'd Lady
TTITLE2=I Ain't No Saint
TTITLE3=Off The Handle
TTITLE4=The Loop
TTITLE5=Messin' With The Kid
TTITLE6=Loneshark Blues
EXTD=
EXTT0=
EXTT1=
EXTT2=
EXTT3=
EXTT4=
EXTT5=
EXTT6=
PLAYORDER=
